<mxfile host="app.diagrams.net" modified="2023-11-20T03:19:31.601Z" agent="Mozilla/5.0 (Windows NT 10.0; Win64; x64) AppleWebKit/537.36 (KHTML, like Gecko) Chrome/119.0.0.0 Safari/537.36 Edg/119.0.0.0" etag="-p8QVDcjeAN6TZ8e4Yjv" version="21.6.5" type="github">
  <diagram id="tl8KdTMLcbwBXlCz1rqT" name="Page-1">
    <mxGraphModel dx="739" dy="425" grid="1" gridSize="10" guides="1" tooltips="1" connect="1" arrows="1" fold="1" page="1" pageScale="1" pageWidth="827" pageHeight="1169" math="0" shadow="0">
      <root>
        <mxCell id="0" />
        <mxCell id="1" parent="0" />
        <mxCell id="ABtF27ToQKTDoKfIrqzG-9" value="" style="edgeStyle=orthogonalEdgeStyle;rounded=0;orthogonalLoop=1;jettySize=auto;html=1;" edge="1" parent="1" source="ABtF27ToQKTDoKfIrqzG-1" target="ABtF27ToQKTDoKfIrqzG-5">
          <mxGeometry relative="1" as="geometry" />
        </mxCell>
        <mxCell id="ABtF27ToQKTDoKfIrqzG-1" value="gateway" style="rounded=1;whiteSpace=wrap;html=1;" vertex="1" parent="1">
          <mxGeometry x="280" y="340" width="346" height="60" as="geometry" />
        </mxCell>
        <mxCell id="ABtF27ToQKTDoKfIrqzG-10" style="edgeStyle=orthogonalEdgeStyle;rounded=0;orthogonalLoop=1;jettySize=auto;html=1;exitX=0;exitY=0.5;exitDx=0;exitDy=0;" edge="1" parent="1" source="ABtF27ToQKTDoKfIrqzG-5">
          <mxGeometry relative="1" as="geometry">
            <mxPoint x="240" y="270" as="targetPoint" />
          </mxGeometry>
        </mxCell>
        <mxCell id="ABtF27ToQKTDoKfIrqzG-5" value="process" style="rounded=1;whiteSpace=wrap;html=1;" vertex="1" parent="1">
          <mxGeometry x="280" y="240" width="346" height="60" as="geometry" />
        </mxCell>
        <mxCell id="ABtF27ToQKTDoKfIrqzG-11" style="edgeStyle=orthogonalEdgeStyle;rounded=0;orthogonalLoop=1;jettySize=auto;html=1;entryX=0;entryY=0.75;entryDx=0;entryDy=0;exitX=0.993;exitY=0.63;exitDx=0;exitDy=0;exitPerimeter=0;" edge="1" parent="1" source="ABtF27ToQKTDoKfIrqzG-7" target="ABtF27ToQKTDoKfIrqzG-5">
          <mxGeometry relative="1" as="geometry" />
        </mxCell>
        <mxCell id="ABtF27ToQKTDoKfIrqzG-7" value="protocol" style="rounded=1;whiteSpace=wrap;html=1;" vertex="1" parent="1">
          <mxGeometry x="130" y="90" width="110" height="310" as="geometry" />
        </mxCell>
        <mxCell id="ABtF27ToQKTDoKfIrqzG-8" value="应用" style="rounded=1;whiteSpace=wrap;html=1;" vertex="1" parent="1">
          <mxGeometry x="570" y="90" width="120" height="60" as="geometry" />
        </mxCell>
      </root>
    </mxGraphModel>
  </diagram>
</mxfile>
